<svg xmlns="http://www.w3.org/2000/svg" width="100" height="100" data-name="Layer 2"><path d="M50 0a50 50 0 1 0 0 100A50 50 0 0 0 50 0ZM4.3 50A45.7 45.7 0 0 1 50 4.3a45.6 45.6 0 0 1 15.8 2.8 49.3 49.3 0 0 0-8.7 5.9H30.9a42.5 42.5 0 0 0-4.8 3h27.7a47.4 47.4 0 0 0-4.3 4.9H20.2a42.7 42.7 0 0 0-2.6 3h30a47.5 47.5 0 0 0-2.9 4.9H14.2a42.3 42.3 0 0 0-1.6 3h30.9a46.6 46.6 0 0 0-1.7 4.9H10.5a44.5 44.5 0 0 0-.8 2.9H41a48.3 48.3 0 0 0-.7 5H8.7a43.5 43.5 0 0 0-.3 3H40a45.9 45.9 0 0 0 0 4.9H8.5l.2 2.9h31.6c.2 1.7.5 3.3.9 5H9.7a43.3 43.3 0 0 0 .8 2.9H42a47 47 0 0 0 1.8 4.9H12.6a39.7 39.7 0 0 0 1.6 3h30.9a47.6 47.6 0 0 0 2.8 5L17.6 76a42.2 42.2 0 0 0 2.7 3H50a47.6 47.6 0 0 0 4.4 4.9H26a41 41 0 0 0 4.8 3h26.9a49 49 0 0 0 8.7 5.5A45.5 45.5 0 0 1 50 95.6 45.7 45.7 0 0 1 4.3 49.9Z" data-name="Layer 1" style="stroke-width:0"/></svg>